<?xml version="1.0" encoding="UTF-8" standalone="no"?> <!-- Created with Vectornator for iOS (http://vectornator.io/) --><!DOCTYPE svg PUBLIC "-//W3C//DTD SVG 1.1//EN" "http://www.w3.org/Graphics/SVG/1.1/DTD/svg11.dtd">
<svg style="fill-rule:evenodd;clip-rule:evenodd;stroke-linecap:round;stroke-linejoin:round;" xmlns:vectornator="http://vectornator.io" xmlns:xlink="http://www.w3.org/1999/xlink" xmlns="http://www.w3.org/2000/svg" xml:space="preserve" version="1.1" viewBox="0 0 85 150">
<metadata>
<vectornator:setting key="DynamicGuides" value="1"/>
<vectornator:setting key="Units" value="Points"/>
<vectornator:setting key="RulersVisible" value="1"/>
<vectornator:setting key="SnapToGuides" value="1"/>
<vectornator:setting key="GridSpacing" value="36"/>
</metadata>
<defs/>
<g id="Untitled" vectornator:layerName="Untitled">
<g opacity="1">
<path d="M82.9887+43.997C82.9887+44.107+82.9787+44.217+82.9787+44.327L80.4687+46.487L67.0887+38.307L70.7287+23.047L76.8487+22.557C71.5387+14.055+63.1567+7.67704+53.2597+4.96004L54.9887+10.277L42.4587+19.377L42.2987+19.497L29.6087+10.277L31.2957+5.08504C21.5737+7.87104+13.3407+14.193+8.10873+22.587L13.8687+23.047L17.5187+38.307L4.13873+46.487L2.00873+44.657C1.99873+44.437+1.98873+44.217+1.98873+43.997C1.98873+52.797+4.80273+60.943+9.57873+67.587L10.3087+65.357L25.9887+65.357L30.8387+80.277L28.4687+81.997C32.8387+83.617+37.5587+84.497+42.4887+84.497C47.2787+84.497+51.8787+83.667+56.1387+82.137L55.1387+81.417L59.9887+66.497L75.6687+66.497L75.8287+66.977C74.3387+69.137+72.6387+71.147+70.7687+72.977C78.3087+65.637+82.9887+55.357+82.9887+43.997ZM34.5787+56.507L29.6587+41.347L42.5487+31.977L55.4487+41.347L50.5187+56.507L34.5787+56.507Z" opacity="1" fill="#ffffff"/>
<path d="M9.58373+67.593L9.57873+67.587L9.57873+67.587L9.58373+67.593Z" opacity="1" fill="#ffffff"/>
<path d="M9.58373+67.593C10.1687+68.406+10.7767+69.201+11.4187+69.967C10.7807+69.199+10.1717+68.401+9.58373+67.593Z" opacity="1" fill="#ffffff"/>
<path d="M31.2987+5.07704L31.2957+5.08504C31.3627+5.06604+31.4287+5.04604+31.4957+5.02704C31.4307+5.04604+31.3637+5.05805+31.2987+5.07704Z" opacity="1" fill="#ffffff"/>
<path d="M33.8047+4.45204C33.9007+4.43104+33.9947+4.40704+34.0907+4.38704C33.9947+4.40704+33.8997+4.43105+33.8047+4.45204Z" opacity="1" fill="#ffffff"/>
<path d="M31.4957+5.02804C32.2567+4.81404+33.0267+4.62204+33.8037+4.45204C33.0257+4.62104+32.2567+4.81404+31.4957+5.02804Z" opacity="1" fill="#ffffff"/>
<path d="M34.0907+4.38604C34.9757+4.19904+35.8687+4.03704+36.7687+3.90704C35.8647+4.03404+34.9737+4.20104+34.0907+4.38604Z" opacity="1" fill="#ffffff"/>
<path d="M51.9687+4.61704C52.4037+4.72104+52.8307+4.84204+53.2597+4.96004L53.2587+4.95704C52.8287+4.83705+52.3987+4.72704+51.9687+4.61704Z" opacity="1" fill="#ffffff"/>
</g>
<path d="M82.9587+42.527C82.9787+43.017+82.9887+43.507+82.9887+43.997C82.9887+44.107+82.9787+44.217+82.9787+44.327L80.4687+46.487L67.0887+38.307L70.7287+23.047L76.8487+22.557C77.2887+23.257+77.6987+23.967+78.0987+24.697C78.1587+24.807+78.2087+24.907+78.2687+25.007C78.4687+25.397+78.6687+25.777+78.8587+26.167C79.0487+26.547+79.2287+26.937+79.4087+27.327C79.4187+27.357+79.4287+27.387+79.4487+27.427C79.6187+27.807+79.7887+28.197+79.9487+28.587C79.9887+28.677+80.0187+28.757+80.0487+28.837C80.2087+29.217+80.3587+29.597+80.4987+29.987C80.5087+30.017+80.5187+30.047+80.5287+30.077C80.6787+30.487+80.8287+30.897+80.9587+31.317C81.0887+31.697+81.2087+32.077+81.3187+32.457C81.3587+32.607+81.4087+32.757+81.4487+32.907C81.5587+33.277+81.6587+33.647+81.7487+34.017C81.8687+34.477+81.9687+34.927+82.0687+35.397C82.1687+35.857+82.2687+36.317+82.3487+36.787C82.4087+37.137+82.4687+37.487+82.5187+37.837C82.5787+38.177+82.6187+38.507+82.6587+38.837C82.7087+39.177+82.7487+39.517+82.7787+39.857C82.8187+40.197+82.8487+40.537+82.8687+40.877C82.8887+41.067+82.8987+41.247+82.9087+41.437C82.9287+41.797+82.9487+42.157+82.9587+42.527Z" opacity="1" fill="#6d6e71"/>
<path d="M75.6687+66.497L75.8287+66.977C74.3387+69.137+72.6387+71.147+70.7687+72.977C70.0187+73.717+69.2387+74.417+68.4387+75.087C68.3687+75.147+68.3087+75.197+68.2487+75.247C67.9087+75.527+67.5587+75.807+67.2087+76.077C66.7887+76.397+66.3687+76.707+65.9487+77.017C65.9387+77.017+65.9387+77.027+65.9387+77.027C65.5087+77.327+65.0787+77.617+64.6487+77.897C64.2087+78.187+63.7587+78.467+63.3087+78.737C62.8787+78.997+62.4487+79.247+62.0087+79.487C61.9387+79.527+61.8587+79.567+61.7887+79.607C61.3787+79.837+60.9587+80.047+60.5387+80.257C60.1087+80.477+59.6687+80.687+59.2287+80.887C59.1087+80.937+58.9887+80.997+58.8587+81.047C58.4987+81.217+58.1187+81.367+57.7487+81.517C57.2187+81.737+56.6787+81.947+56.1387+82.137L55.1387+81.417L59.9887+66.497C59.9887+66.497+75.6687+66.497+75.6687+66.497Z" opacity="1" fill="#6d6e71"/>
<path d="M25.9887+65.357L30.8387+80.277L28.4687+81.997C27.9887+81.817+27.5187+81.637+27.0487+81.447C26.5787+81.247+26.1187+81.047+25.6587+80.837C24.8187+80.457+23.9887+80.037+23.1887+79.607C23.0987+79.557+23.0087+79.507+22.9187+79.457C22.0487+78.977+21.1987+78.457+20.3587+77.917C19.0987+77.097+17.8887+76.197+16.7387+75.247C16.7287+75.247+16.7287+75.247+16.7287+75.247C15.5687+74.287+14.4687+73.267+13.4287+72.197C12.7287+71.477+12.0587+70.727+11.4187+69.967C10.7787+69.197+10.1687+68.397+9.57873+67.587L10.3087+65.357C10.3087+65.357+25.9887+65.357+25.9887+65.357Z" opacity="1" fill="#6d6e71"/>
<path d="M13.8687+23.047L17.5187+38.307L4.13873+46.487L2.00873+44.657C1.99873+44.437+1.98873+44.217+1.98873+43.997C1.98873+43.507+1.99873+43.017+2.01873+42.527C2.02873+42.157+2.04873+41.787+2.06873+41.417C2.07873+41.237+2.08873+41.057+2.10873+40.877C2.13873+40.527+2.16873+40.187+2.19873+39.847C2.22873+39.537+2.26873+39.237+2.30873+38.927C2.30873+38.877+2.31873+38.827+2.32873+38.787C2.35873+38.497+2.39873+38.207+2.44873+37.907C2.49873+37.537+2.55873+37.167+2.62873+36.797C2.70873+36.337+2.80873+35.867+2.90873+35.407C3.10873+34.487+3.33873+33.577+3.59873+32.677C3.84873+31.807+4.12873+30.947+4.43873+30.107C4.46873+30.027+4.49873+29.957+4.51873+29.877C4.82873+29.057+5.15873+28.247+5.51873+27.447C5.53873+27.407+5.55873+27.367+5.56873+27.327C5.90873+26.587+6.25873+25.857+6.63873+25.147C6.71873+24.997+6.79873+24.847+6.87873+24.697C7.26873+23.977+7.67873+23.277+8.10873+22.587L13.8687+23.047Z" opacity="1" fill="#5a5b5e"/>
<path d="M55.4487+41.347L50.5187+56.507L34.5787+56.507L29.6587+41.347L42.5487+31.977L55.4487+41.347Z" opacity="1" fill="#6d6e71"/>
<path d="M53.2587+4.95704L54.9887+10.277L42.4587+19.377L42.2987+19.497L29.6087+10.277L31.2987+5.07704C33.0787+4.56704+34.9087+4.17704+36.7687+3.90704C37.2387+3.83704+37.7087+3.77704+38.1787+3.72704C38.7187+3.66704+39.2687+3.62704+39.8187+3.58704C40.2187+3.55704+40.6287+3.53704+41.0387+3.52704C41.5187+3.50704+42.0087+3.49704+42.4887+3.49704C43.2887+3.49704+44.0787+3.51704+44.8687+3.56704C45.1087+3.57704+45.3387+3.59704+45.5787+3.61704C46.2787+3.66704+46.9687+3.73704+47.6487+3.82704C47.8887+3.85704+48.1287+3.88704+48.3787+3.92704C48.6987+3.97704+49.0087+4.02704+49.3287+4.07704C50.2187+4.22704+51.0987+4.40704+51.9687+4.61704C52.3987+4.72704+52.8287+4.83705+53.2587+4.95704Z" opacity="1" fill="#6d6e71"/>
<g opacity="1">
<path d="M82.9887+43.997C82.9887+44.107+82.9787+44.217+82.9787+44.327L80.4687+46.487L67.0887+38.307L70.7287+23.047L76.8487+22.557C71.5387+14.055+63.1567+7.67704+53.2597+4.96004L54.9887+10.277L42.4587+19.377L42.2987+19.497L29.6087+10.277L31.2957+5.08504C21.5737+7.87104+13.3407+14.193+8.10873+22.587L13.8687+23.047L17.5187+38.307L4.13873+46.487L2.00873+44.657C1.99873+44.437+1.98873+44.217+1.98873+43.997C1.98873+52.797+4.80273+60.943+9.57873+67.587L10.3087+65.357L25.9887+65.357L30.8387+80.277L28.4687+81.997C32.8387+83.617+37.5587+84.497+42.4887+84.497C47.2787+84.497+51.8787+83.667+56.1387+82.137L55.1387+81.417L59.9887+66.497L75.6687+66.497L75.8287+66.977C74.3387+69.137+72.6387+71.147+70.7687+72.977C78.3087+65.637+82.9887+55.357+82.9887+43.997ZM34.5787+56.507L29.6587+41.347L42.5487+31.977L55.4487+41.347L50.5187+56.507L34.5787+56.507Z" opacity="1" fill="#ffffff"/>
<path d="M9.58373+67.593L9.57873+67.587L9.57873+67.587L9.58373+67.593Z" opacity="1" fill="#ffffff"/>
<path d="M9.58373+67.593C10.1687+68.406+10.7767+69.201+11.4187+69.967C10.7807+69.199+10.1717+68.401+9.58373+67.593Z" opacity="1" fill="#ffffff"/>
<path d="M31.2987+5.07704L31.2957+5.08504C31.3627+5.06604+31.4287+5.04604+31.4957+5.02704C31.4307+5.04604+31.3637+5.05805+31.2987+5.07704Z" opacity="1" fill="#ffffff"/>
<path d="M33.8047+4.45204C33.9007+4.43104+33.9947+4.40704+34.0907+4.38704C33.9947+4.40704+33.8997+4.43105+33.8047+4.45204Z" opacity="1" fill="#ffffff"/>
<path d="M31.4957+5.02804C32.2567+4.81404+33.0267+4.62204+33.8037+4.45204C33.0257+4.62104+32.2567+4.81404+31.4957+5.02804Z" opacity="1" fill="#ffffff"/>
<path d="M34.0907+4.38604C34.9757+4.19904+35.8687+4.03704+36.7687+3.90704C35.8647+4.03404+34.9737+4.20104+34.0907+4.38604Z" opacity="1" fill="#ffffff"/>
<path d="M51.9687+4.61704C52.4037+4.72104+52.8307+4.84204+53.2597+4.96004L53.2587+4.95704C52.8287+4.83705+52.3987+4.72704+51.9687+4.61704Z" opacity="1" fill="#ffffff"/>
</g>
<g opacity="1">
<path d="M57.4887+8.54904C59.2407+8.54904+60.9637+8.67304+62.6567+8.88904C59.7327+7.20804+56.5847+5.87304+53.2597+4.96004L54.4667+8.67304C55.4657+8.59905+56.4707+8.54904+57.4887+8.54904Z" opacity="1" fill="#aeb0b1"/>
<path d="M10.3087+65.357L20.4167+65.357C18.2187+60.366+16.9887+54.853+16.9887+49.049C16.9887+34.639+24.5207+21.995+35.8567+14.817L29.6087+10.277L31.2957+5.08504C21.5737+7.87104+13.3407+14.193+8.10873+22.587L13.8687+23.047L17.5187+38.307L4.13873+46.487L2.00873+44.657C1.99873+44.437+1.98873+44.217+1.98873+43.997C1.98873+52.797+4.80273+60.943+9.57873+67.587L10.3087+65.357Z" opacity="1" fill="#aeb0b1"/>
<path d="M30.5017+79.239L30.8387+80.277L28.4687+81.997C31.2857+83.041+34.2507+83.773+37.3217+84.165C34.8767+82.758+32.5907+81.108+30.5017+79.239Z" opacity="1" fill="#aeb0b1"/>
</g>
<path d="M54.4667+8.67304L53.2587+4.95704C52.8287+4.83704+52.3987+4.72704+51.9687+4.61704C51.0987+4.40704+50.2187+4.22704+49.3287+4.07704C49.0087+4.02704+48.6987+3.97704+48.3787+3.92704C48.1287+3.88704+47.8887+3.85704+47.6487+3.82704C46.9687+3.73704+46.2787+3.66704+45.5787+3.61704C45.3387+3.59704+45.1087+3.57704+44.8687+3.56704C44.0787+3.51704+43.2887+3.49704+42.4887+3.49704C42.0087+3.49704+41.5187+3.50704+41.0387+3.52704C40.6287+3.53704+40.2187+3.55704+39.8187+3.58704C39.2687+3.62704+38.7187+3.66704+38.1787+3.72704C37.7087+3.77704+37.2387+3.83704+36.7687+3.90704C34.9087+4.17704+33.0787+4.56704+31.2987+5.07704L29.6087+10.277L35.8567+14.817C41.3167+11.36+47.6557+9.17604+54.4667+8.67304Z" opacity="1" fill="#5a5b5e"/>
<path d="M20.4167+65.357L10.3087+65.357L9.57873+67.587C10.1687+68.397+10.7787+69.197+11.4187+69.967C12.0587+70.727+12.7287+71.477+13.4287+72.197C14.4687+73.267+15.5687+74.287+16.7287+75.247C16.7287+75.247+16.7287+75.247+16.7387+75.247C17.8887+76.197+19.0987+77.097+20.3587+77.917C21.1987+78.457+22.0487+78.977+22.9187+79.457C23.0087+79.507+23.0987+79.557+23.1887+79.607C23.9887+80.037+24.8187+80.457+25.6587+80.837C26.1187+81.047+26.5787+81.247+27.0487+81.447C27.5187+81.637+27.9887+81.817+28.4687+81.997L30.8387+80.277L30.5017+79.239C26.2207+75.41+22.7647+70.684+20.4167+65.357Z" opacity="1" fill="#5a5b5e"/>
<path d="M84.9887+43.997C84.9887+43.479+84.9787+42.962+84.9577+42.471C84.9537+42.314+84.9437+42.164+84.9367+42.01C84.9327+41.93+84.9297+41.85+84.9257+41.77C84.9187+41.625+84.9137+41.476+84.9057+41.334C84.8937+41.107+84.8807+40.893+84.8647+40.76C84.8427+40.381+84.8087+40.003+84.7707+39.679C84.7367+39.301+84.6927+38.923+84.6377+38.544C84.5957+38.191+84.5507+37.83+84.4987+37.555C84.4467+37.187+84.3827+36.818+84.3207+36.452C84.2357+35.95+84.1307+35.461+84.0257+34.979C83.9197+34.479+83.8127+34+83.6927+33.544C83.5947+33.141+83.4857+32.737+83.3817+32.392L83.2407+31.901C83.1217+31.491+82.9927+31.082+82.8697+30.723C82.7317+30.278+82.5737+29.843+82.4157+29.411C82.4117+29.396+82.3877+29.327+82.3827+29.313C82.2307+28.887+82.0677+28.472+81.9147+28.112C81.8737+28.004+81.8317+27.894+81.7997+27.825C81.6457+27.451+81.4837+27.076+81.2917+26.649C81.2717+26.594+81.2507+26.542+81.2267+26.49C81.0387+26.08+80.8487+25.671+80.6587+25.291C80.5077+24.98+80.3497+24.676+80.1917+24.369L80.0487+24.092C80.0287+24.054+80.0077+24.017+79.9867+23.98L79.8547+23.737C79.4027+22.911+78.9737+22.176+78.5437+21.492C78.4737+21.38+78.3817+21.287+78.2937+21.193C72.7827+12.59+64.2637+6.09904+54.2277+3.21004C54.0927+3.13504+53.9507+3.07304+53.7987+3.03104C53.3697+2.91104+52.9417+2.80104+52.4397+2.67304C51.5327+2.45404+50.5987+2.26304+49.6377+2.10104L48.7087+1.95504C48.4747+1.91604+48.2317+1.88504+47.9117+1.84504C47.1927+1.75004+46.4637+1.67604+45.7527+1.62504C45.4927+1.60304+45.2217+1.58104+44.9967+1.57204C44.2157+1.52204+43.3957+1.49804+42.4897+1.49804C41.9827+1.49804+41.4637+1.50804+40.9917+1.52804C40.5477+1.53904+40.1027+1.56004+39.6747+1.59304C39.0987+1.63504+38.5237+1.67704+37.9687+1.73904C37.4727+1.79204+36.9757+1.85504+36.4787+1.92904C34.5277+2.21204+32.5997+2.62504+30.7497+3.15504C30.6057+3.19604+30.4697+3.25804+30.3407+3.32904C20.4677+6.27804+12.0987+12.726+6.66273+21.229C6.57373+21.323+6.48173+21.416+6.41173+21.529C5.94073+22.284+5.51773+23.009+5.11573+23.754L4.87473+24.204C4.52473+24.857+4.16773+25.585+3.75073+26.494C3.73173+26.534+3.71373+26.576+3.69873+26.618C3.69773+26.621+3.69573+26.624+3.69473+26.628C3.33473+27.429+2.99173+28.261+2.64773+29.171C2.61973+29.243+2.62273+29.23+2.60473+29.306L2.62673+29.314C2.61373+29.35+2.59773+29.385+2.58373+29.422L2.56273+29.416C2.34773+29.998+2.16473+30.61+1.97473+31.216C1.94573+31.307+1.91473+31.396+1.88573+31.487C1.81973+31.702+1.73973+31.908+1.67773+32.124C1.59773+32.4+1.53973+32.687+1.46473+32.967C1.35773+33.361+1.25973+33.758+1.16473+34.156C1.09873+34.434+1.01573+34.707+0.955732+34.984C0.849732+35.47+0.744732+35.968+0.664732+36.425C0.587732+36.83+0.521732+37.237+0.477732+37.57C0.426732+37.87+0.383732+38.178+0.350732+38.479C0.333732+38.568+0.322732+38.654+0.315732+38.741C0.275732+39.04+0.237732+39.348+0.206732+39.674L0.0717319+41.311C0.0627319+41.476+0.0577319+41.632+0.0497319+41.795C0.0467319+41.856+0.0447319+41.917+0.0417319+41.978C0.0347319+42.134+0.0247319+42.298+0.0207319+42.447C-0.00126785+42.962-0.0112679+43.48-0.0112679+43.997C-0.0112679+44.005-0.0102679+44.013-0.0102679+44.021C-0.0102679+44.03-0.0112679+44.039-0.0112679+44.049C-0.0112679+67.484+19.0537+86.549+42.4887+86.549C65.9237+86.549+84.9887+67.484+84.9887+44.049C84.9887+44.04+84.9877+44.031+84.9877+44.022C84.9877+44.014+84.9887+44.006+84.9887+43.997ZM75.0867+64.497L60.8487+64.497L52.7877+55.994L57.0117+43.006L66.7717+40.457L79.4247+48.193C79.7467+48.39+80.1087+48.487+80.4677+48.487C80.5547+48.487+80.6407+48.476+80.7277+48.464C80.0577+54.304+78.0767+59.747+75.0867+64.497ZM61.4417+68.497L72.1747+68.497C71.2977+69.559+70.3597+70.579+69.3697+71.547C69.3677+71.549+69.3657+71.551+69.3637+71.553C68.6857+72.222+67.9637+72.876+67.1457+73.561L66.9787+73.703C66.6537+73.97+66.3197+74.237+65.9997+74.485C65.5867+74.798+65.1747+75.103+64.7627+75.408L64.7627+75.408C64.7537+75.415+64.7447+75.422+64.7357+75.429C64.3437+75.702+63.9507+75.966+63.5487+76.228C63.1317+76.502+62.7057+76.768+62.2747+77.027C61.8697+77.272+61.4647+77.507+60.9717+77.776L60.8087+77.865C60.4277+78.08+60.0367+78.274+59.6287+78.478C59.2257+78.683+58.8137+78.88+58.4637+79.04L58.1437+79.181C58.0977+79.199+58.0517+79.218+58.0067+79.24C57.9847+79.25+57.9627+79.261+57.9407+79.27L61.4417+68.497ZM28.1717+79.741C28.0567+79.696+27.9427+79.651+27.8327+79.607C27.3777+79.414+26.9337+79.22+26.4827+79.014C25.7487+78.682+24.9817+78.299+24.1547+77.855L23.8857+77.706C23.1387+77.294+22.3387+76.812+21.4497+76.241C20.2967+75.49+19.1407+74.637+18.0127+73.705C17.9737+73.673+17.9337+73.643+17.8927+73.614C16.8507+72.745+15.8317+71.801+14.8637+70.803C14.2377+70.158+13.5927+69.444+12.9567+68.687C12.6197+68.282+12.2697+67.841+11.8997+67.356L24.5357+67.356L28.4867+79.511L28.1717+79.741ZM25.1437+63.357L10.3087+63.357C9.96273+63.357+9.64473+63.466+9.35573+63.625C6.66473+59.087+4.88073+53.954+4.25073+48.473C4.57273+48.455+4.89373+48.371+5.18173+48.194L17.8457+40.451L28.0987+43.018L32.3047+55.979L25.1437+63.357ZM4.03673+42.171C4.03973+42.116+4.04173+42.06+4.04473+42.005C4.17073+39.608+4.52473+37.271+5.07173+35.009C5.14873+34.689+5.22873+34.371+5.31373+34.053C5.44273+33.574+5.57373+33.095+5.72073+32.623C5.72573+32.608+5.73073+32.594+5.73473+32.579C6.60473+29.797+7.79073+27.156+9.23573+24.683L12.2617+24.925L15.2357+37.359L4.33873+44.022L3.99773+43.729C4.00073+43.207+4.01173+42.687+4.03673+42.171ZM36.0317+54.507L32.0087+42.111L42.5487+34.45L53.0967+42.111L49.0657+54.507L36.0317+54.507ZM32.8507+6.77104C35.9327+5.97405+39.1617+5.54904+42.4887+5.54904C45.6687+5.54904+48.7567+5.94404+51.7137+6.67404L52.6367+9.51304L42.2967+17.024L31.9597+9.51404L32.8507+6.77104ZM80.9317+41.975C80.9357+42.053+80.9387+42.132+80.9427+42.212C80.9617+42.611+80.9667+43.014+80.9737+43.416L80.2697+44.021L69.3727+37.359L72.3387+24.925L75.7267+24.654C78.7357+29.793+80.5957+35.683+80.9317+41.975ZM73.1857+20.844L70.5697+21.054C69.7057+21.122+68.9857+21.741+68.7837+22.583L65.4227+36.674L55.8587+39.172L44.5487+30.958L44.5487+20.334L56.1637+11.895C56.8647+11.386+57.1587+10.482+56.8907+9.65805L56.4037+8.16205C63.1067+10.77+68.9067+15.198+73.1857+20.844ZM28.1377+8.33405L27.7077+9.65905C27.4397+10.483+27.7327+11.386+28.4337+11.895L40.5497+20.698L40.5497+30.958L29.2397+39.18L19.1827+36.662L15.8157+22.583C15.6137+21.74+14.8927+21.123+14.0297+21.054L11.7717+20.874C15.9577+15.336+21.6077+10.968+28.1377+8.33405ZM32.5627+81.245C32.8297+80.769+32.9167+80.201+32.7407+79.658L28.2627+65.884L35.4237+58.507L49.6587+58.507L57.7197+67.01L53.2377+80.799C53.2137+80.872+53.2177+80.947+53.2027+81.021C49.7987+82.009+46.2067+82.549+42.4887+82.549C39.0567+82.549+35.7317+82.0911+32.5627+81.245Z" opacity="1" fill="#58595b"/>
</g>
</svg>
