<?xml version="1.0" encoding="utf-8"?>
<!-- Generator: Adobe Illustrator 21.0.0, SVG Export Plug-In . SVG Version: 6.00 Build 0)  -->
<svg version="1.1" id="Layer_1" xmlns="http://www.w3.org/2000/svg" xmlns:xlink="http://www.w3.org/1999/xlink" x="0px" y="0px"
	 viewBox="0 0 68 150" style="enable-background:new 0 0 68 150;" xml:space="preserve">
<style type="text/css">
	.st0{fill:#5BAF5D;}
	.st1{fill:#66C468;}
	.st2{fill:#76E378;}
	.st3{fill:#4D944F;}
	.st4{fill:#9AC4F0;}
	.st5{fill:#E0E1E2;}
	.st6{fill:#958079;}
	.st7{fill:#444B52;}
	.st8{fill:#6D6E71;}
	.st9{fill:#8D8F92;}
	.st10{fill:#855E3C;}
	.st11{fill:#A37C50;}
	.st12{fill:#805E3A;}
	.st13{fill:#6C4A30;}
	.st14{fill:#FFFFFF;}
	.st15{fill:#FCD75F;}
	.st16{fill:#EB5252;}
	.st17{fill:#B09A7D;}
	.st18{fill:#325743;}
	.st19{fill:#8C6645;}
	.st20{fill:#B58A64;}
	.st21{fill:#6E5036;}
	.st22{fill:#52351C;}
	.st23{fill:#D1D3D4;}
	.st24{fill:#6B6A6E;}
	.st25{fill:#68696B;}
	.st26{fill:#757578;}
	.st27{fill:#737476;}
	.st28{fill:#F1F2F2;}
	.st29{fill:#BABCBD;}
	.st30{fill:#38B077;}
	.st31{fill:#40A7FF;}
	.st32{fill:#4081FF;}
	.st33{fill:#4B5582;}
	.st34{fill:#3ECFCF;}
	.st35{fill:#89E2E2;}
	.st36{fill:#FF84C1;}
	.st37{fill:#FFB3D1;}
	.st38{fill:#FF99C1;}
	.st39{fill:#FFC642;}
	.st40{fill:#14E398;}
	.st41{fill:#FF91F6;}
	.st42{fill:#6BFFC9;}
	.st43{fill:#FF6BF3;}
	.st44{fill:#FFD67D;}
	.st45{fill:#425B80;}
	.st46{fill:#F2AC32;}
	.st47{fill:#F268EB;}
	.st48{fill:#00A7E8;}
	.st49{fill:#C7A983;}
	.st50{fill:#AD895D;}
	.st51{fill:#5E5755;}
	.st52{fill:#F24129;}
	.st53{fill:#C73522;}
	.st54{fill:#423E3A;}
	.st55{fill:#CC2121;}
	.st56{fill:#E0E0E0;}
	.st57{fill:#A31A1A;}
	.st58{fill:#2E292A;}
	.st59{fill:#EBEBEB;}
	.st60{fill:#58595B;}
	.st61{fill:#D2D3D4;}
	.st62{fill:#AFB1B5;}
	.st63{fill:#4CE637;}
	.st64{fill:#F03E3E;}
	.st65{fill:#DADADB;}
	.st66{opacity:0.3;}
	.st67{fill:#DFE0E1;}
	.st68{fill:#2CD4F5;}
	.st69{fill:#1BCDF0;}
	.st70{fill:none;stroke:#2CD4F5;stroke-width:4;stroke-linecap:round;stroke-miterlimit:10;}
	.st71{fill:#373F61;}
	.st72{opacity:0.2;}
	.st73{fill:#FF82A0;}
	.st74{fill:#E6E6E6;}
	.st75{fill:#FF5C83;}
	.st76{fill:#D4335B;}
	.st77{fill:#A0A2A5;}
	.st78{fill:#436C8C;}
	.st79{fill:#EDEDED;}
	.st80{fill:#2BAF73;}
	.st81{fill:#50DE9D;}
	.st82{fill:#D6D6D6;}
	.st83{fill:#1B8555;}
	.st84{fill:#3B434F;}
	.st85{fill:#73DEEF;}
	.st86{fill:#DCA0FF;}
	.st87{fill:#D78DFF;}
	.st88{fill:#DC92FF;}
	.st89{fill:#73D0E4;}
	.st90{fill:#726097;}
	.st91{fill:#C8CACC;}
	.st92{fill:#9D9EA1;}
	.st93{fill:#474747;}
	.st94{fill:#DBDBDB;}
	.st95{fill:#282829;}
	.st96{fill:#F7FFE0;}
	.st97{fill:#C862D4;}
	.st98{fill:#C8CFB5;}
	.st99{fill:#793B80;}
	.st100{fill:#46385E;}
	.st101{fill:#FFE9BC;}
	.st102{fill:#4C4450;}
	.st103{fill:#363038;}
	.st104{fill:#1E232B;}
	.st105{fill:#FFBFC2;}
	.st106{fill:#AB0F19;}
	.st107{fill:#99D96F;}
	.st108{fill:#80B55C;}
	.st109{fill:#E3E3E3;}
	.st110{fill:#89C263;}
	.st111{fill:#68944B;}
	.st112{fill:#4D594D;}
	.st113{fill:#E0AFA9;}
	.st114{fill:#FFC7C0;}
	.st115{fill:#78584B;}
	.st116{fill:#FD244B;}
	.st117{fill:#D4D4D4;}
	.st118{fill:#8C6758;}
	.st119{fill:#453F3D;}
	.st120{fill:#523D34;}
</style>
<g>
	<g>
		<path class="st113" d="M66.05,63.54c0,0-0.25,8.03-3.83,11.61s-6.98,3.5-9.13,1.35c-2.15-2.14-2.22-5.55,1.36-9.13
			C58.03,63.79,66.05,63.54,66.05,63.54z"/>
	</g>
	<g>
		<path class="st114" d="M56.17,75.15c2.827-2.827,3.575-8.414,3.766-10.646C63.054,63.637,66,63.54,66,63.54s-0.25,8.03-3.83,11.61
			c-3.227,3.227-6.313,3.474-8.458,1.918C54.513,76.611,55.336,75.983,56.17,75.15z"/>
	</g>
	<path class="st115" d="M67.464,62.126c-0.391-0.391-0.907-0.606-1.477-0.585c-0.901,0.028-8.928,0.391-12.951,4.415
		c-1.369,1.369-2.208,2.668-2.721,3.835c-0.233-0.235-0.473-0.463-0.716-0.688l6.84-15.145l6.844-0.978
		c1.093-0.156,1.853-1.169,1.696-2.263c-0.156-1.094-1.16-1.851-2.263-1.697l-4.327,0.618l4.433-9.815
		c0.455-1.007,0.008-2.191-0.999-2.646c-1.007-0.455-2.19-0.007-2.646,1l-2.786,6.17l-1.518-4.049
		c-0.389-1.035-1.539-1.558-2.575-1.17c-1.034,0.388-1.559,1.541-1.171,2.575l2.93,7.813l-1.695,3.753l-1.489-3.971
		c-0.389-1.035-1.541-1.558-2.575-1.17c-1.034,0.388-1.559,1.541-1.171,2.575l2.901,7.735l-3.685,8.159
		C42.776,64.323,38.544,63,34,63l0,0c-12.702,0-23,10.297-23,23v64h46V86c0-2.084-0.282-4.101-0.801-6.02
		c0.135,0.008,0.269,0.02,0.405,0.02c0.237,0,0.477-0.012,0.717-0.036c2.152-0.218,4.276-1.362,6.313-3.399
		c4.024-4.024,4.387-12.059,4.415-12.962C68.066,63.05,67.854,62.516,67.464,62.126z M60.806,73.736
		c-1.35,1.35-2.694,2.127-3.889,2.249c-0.923,0.091-1.726-0.21-2.416-0.902c-0.601-0.598-0.906-1.296-0.907-2.074
		c-0.001-1.277,0.784-2.738,2.271-4.225c1.81-1.81,5.4-2.675,7.979-3.034C63.487,68.328,62.623,71.918,60.806,73.736z"/>
	<g>
		<circle class="st116" cx="34" cy="98.025" r="4.47"/>
	</g>
	<g>
		
			<ellipse transform="matrix(0.7745 -0.6325 0.6325 0.7745 -53.5115 42.3895)" class="st14" cx="32.705" cy="96.256" rx="1.783" ry="1.128"/>
	</g>
	<g>
		<g>
			<path class="st14" d="M30.735,84H25.1c-0.168,0.469-0.265,0.972-0.265,1.5c0,1.987,1.296,3.654,3.083,4.25
				C29.704,89.154,31,87.487,31,85.5C31,84.972,30.903,84.469,30.735,84z"/>
		</g>
		<g>
			<path class="st117" d="M24.835,85.5c0-0.528,0.097-1.031,0.265-1.5h-2.824C22.108,84.471,22,84.971,22,85.5
				c0,2.485,2.015,4.5,4.5,4.5c0.259,0,0.509-0.034,0.756-0.076c0.226-0.043,0.446-0.102,0.661-0.173c0,0,0,0,0.001,0
				C26.131,89.154,24.835,87.487,24.835,85.5z"/>
		</g>
	</g>
	<g>
		<path class="st118" d="M30.735,84c-0.464-1.295-1.506-2.312-2.817-2.75c0,0,0,0-0.001,0c-0.215-0.072-0.435-0.13-0.661-0.173
			C27.009,81.034,26.759,81,26.5,81c-1.957,0-3.604,1.256-4.225,3H30.735z"/>
	</g>
	<g>
		<circle class="st119" cx="27.5" cy="86.5" r="1.5"/>
	</g>
	<g>
		<g>
			<path class="st14" d="M44.735,84H39.1c-0.168,0.469-0.265,0.972-0.265,1.5c0,1.987,1.296,3.654,3.083,4.25
				C43.704,89.154,45,87.487,45,85.5C45,84.972,44.903,84.469,44.735,84z"/>
		</g>
		<g>
			<path class="st117" d="M38.835,85.5c0-0.528,0.097-1.031,0.265-1.5h-2.824C36.108,84.471,36,84.971,36,85.5
				c0,2.485,2.015,4.5,4.5,4.5c0.259,0,0.509-0.034,0.756-0.076c0.226-0.043,0.446-0.102,0.661-0.173c0,0,0,0,0.001,0
				C40.131,89.154,38.835,87.487,38.835,85.5z"/>
		</g>
	</g>
	<g>
		<path class="st118" d="M44.735,84c-0.464-1.295-1.506-2.312-2.817-2.75c0,0,0,0-0.001,0c-0.215-0.072-0.435-0.13-0.661-0.173
			C41.009,81.034,40.759,81,40.5,81c-1.957,0-3.604,1.256-4.225,3H44.735z"/>
	</g>
	<g>
		<circle class="st119" cx="41.5" cy="86.5" r="1.5"/>
	</g>
	<g>
		<path class="st120" d="M34,115c-5.514,0-10-4.486-10-10c0-0.553,0.447-1,1-1s1,0.447,1,1c0,4.411,3.589,8,8,8s8-3.589,8-8
			c0-0.553,0.447-1,1-1s1,0.447,1,1C44,110.514,39.514,115,34,115z"/>
	</g>
	<g>
		<path class="st113" d="M13.61,67.37c3.58,3.58,3.5,6.99,1.35,9.13c-2.14,2.15-5.55,2.23-9.13-1.35S2,63.54,2,63.54
			S10.03,63.79,13.61,67.37z"/>
	</g>
	<g>
		<path class="st114" d="M11.83,75.15c-2.827-2.827-3.575-8.414-3.766-10.646C4.946,63.637,2,63.54,2,63.54s0.25,8.03,3.83,11.61
			c3.227,3.227,6.313,3.474,8.458,1.918C13.487,76.611,12.664,75.983,11.83,75.15z"/>
	</g>
	<path class="st118" d="M37.002,63.201C36.019,63.073,35.018,63,34,63c-4.521,0-8.734,1.31-12.291,3.563l-3.67-8.126l2.901-7.735
		c0.388-1.034-0.137-2.187-1.171-2.575c-1.032-0.387-2.187,0.136-2.575,1.17l-1.489,3.971l-1.695-3.753l2.93-7.813
		c0.388-1.034-0.137-2.187-1.171-2.575s-2.187,0.136-2.575,1.17l-1.518,4.049l-2.786-6.17c-0.455-1.007-1.638-1.455-2.646-1
		c-1.007,0.455-1.454,1.639-0.999,2.646l4.398,9.738l-4.325-0.545c-1.09-0.136-2.096,0.638-2.234,1.734
		c-0.138,1.096,0.639,2.096,1.734,2.234l6.756,0.852l6.875,15.222c-0.246,0.226-0.489,0.456-0.725,0.692
		c-0.513-1.157-1.346-2.441-2.699-3.794c-4.023-4.024-12.06-4.387-12.962-4.415c-0.566-0.021-1.087,0.194-1.477,0.585
		c-0.391,0.39-0.603,0.924-0.585,1.476c0.028,0.903,0.391,8.938,4.415,12.962c2.839,2.839,5.395,3.437,7.042,3.437
		c0.002,0,0.005,0,0.008,0c0.113,0,0.223-0.011,0.334-0.017C11.282,81.902,11,83.918,11,86v64h6.005V86
		c0-5.371,1.857-10.298,4.944-14.211c0.521-0.257,0.878-0.711,1.031-1.232C26.553,66.623,31.464,63.924,37.002,63.201z
		 M11.461,76.001c-0.001,0-0.002,0-0.004,0c-1.274,0-2.731-0.783-4.213-2.265c-1.81-1.81-2.675-5.404-3.034-7.985
		c2.582,0.358,6.177,1.224,7.986,3.034c1.482,1.483,2.266,2.941,2.265,4.217c-0.001,0.78-0.308,1.48-0.919,2.088
		C12.941,75.693,12.241,76,11.461,76.001z"/>
</g>
</svg>
