<?xml version="1.0" encoding="utf-8"?>
<!-- Generator: Adobe Illustrator 21.0.0, SVG Export Plug-In . SVG Version: 6.00 Build 0)  -->
<svg version="1.1" id="Layer_1" xmlns="http://www.w3.org/2000/svg" xmlns:xlink="http://www.w3.org/1999/xlink" x="0px" y="0px"
	 viewBox="0 0 93 150" style="enable-background:new 0 0 93 150;" xml:space="preserve">
<style type="text/css">
	.st0{fill:#5BAF5D;}
	.st1{fill:#66C468;}
	.st2{fill:#76E378;}
	.st3{fill:#4D944F;}
	.st4{fill:#9AC4F0;}
	.st5{fill:#E0E1E2;}
	.st6{fill:#958079;}
	.st7{fill:#444B52;}
	.st8{fill:#6D6E71;}
	.st9{fill:#8D8F92;}
	.st10{fill:#855E3C;}
	.st11{fill:#A37C50;}
	.st12{fill:#805E3A;}
	.st13{fill:#6C4A30;}
	.st14{fill:#FFFFFF;}
	.st15{fill:#FCD75F;}
	.st16{fill:#EB5252;}
	.st17{fill:#B09A7D;}
	.st18{fill:#325743;}
	.st19{fill:#8C6645;}
	.st20{fill:#B58A64;}
	.st21{fill:#6E5036;}
	.st22{fill:#52351C;}
	.st23{fill:#D1D3D4;}
	.st24{fill:#6B6A6E;}
	.st25{fill:#68696B;}
	.st26{fill:#757578;}
	.st27{fill:#737476;}
	.st28{fill:#F1F2F2;}
	.st29{fill:#BABCBD;}
	.st30{fill:#38B077;}
	.st31{fill:#40A7FF;}
	.st32{fill:#4081FF;}
	.st33{fill:#4B5582;}
	.st34{fill:#3ECFCF;}
	.st35{fill:#89E2E2;}
	.st36{fill:#FF84C1;}
	.st37{fill:#FFB3D1;}
	.st38{fill:#FF99C1;}
	.st39{fill:#FFC642;}
	.st40{fill:#14E398;}
	.st41{fill:#FF91F6;}
	.st42{fill:#6BFFC9;}
	.st43{fill:#FF6BF3;}
	.st44{fill:#FFD67D;}
	.st45{fill:#425B80;}
	.st46{fill:#F2AC32;}
	.st47{fill:#F268EB;}
	.st48{fill:#00A7E8;}
	.st49{fill:#C7A983;}
	.st50{fill:#AD895D;}
	.st51{fill:#5E5755;}
	.st52{fill:#F24129;}
	.st53{fill:#C73522;}
	.st54{fill:#423E3A;}
	.st55{fill:#CC2121;}
	.st56{fill:#E0E0E0;}
	.st57{fill:#A31A1A;}
	.st58{fill:#2E292A;}
	.st59{fill:#EBEBEB;}
	.st60{fill:#58595B;}
	.st61{fill:#D2D3D4;}
	.st62{fill:#AFB1B5;}
	.st63{fill:#4CE637;}
	.st64{fill:#F03E3E;}
	.st65{fill:#DADADB;}
	.st66{opacity:0.3;}
	.st67{fill:#DFE0E1;}
	.st68{fill:#2CD4F5;}
	.st69{fill:#1BCDF0;}
	.st70{fill:none;stroke:#2CD4F5;stroke-width:4;stroke-linecap:round;stroke-miterlimit:10;}
	.st71{fill:#373F61;}
	.st72{opacity:0.2;}
	.st73{fill:#73DEEF;}
	.st74{fill:#DCA0FF;}
	.st75{fill:#D78DFF;}
	.st76{fill:#DC92FF;}
	.st77{fill:#73D0E4;}
	.st78{fill:#726097;}
	.st79{fill:#FF82A0;}
	.st80{fill:#E6E6E6;}
	.st81{fill:#FF5C83;}
	.st82{fill:#D4335B;}
	.st83{fill:#A0A2A5;}
	.st84{fill:#436C8C;}
	.st85{fill:#EDEDED;}
	.st86{fill:#2BAF73;}
	.st87{fill:#50DE9D;}
	.st88{fill:#D6D6D6;}
	.st89{fill:#1B8555;}
	.st90{fill:#3B434F;}
</style>
<g>
	<g>
		<path class="st79" d="M32.36,23.52c-2.05,1.86-4.3,2.98-7.36,2.98c-3.36,0-6.11-1.35-8-3.55c-1.93-2.22-3-5.29-3-8.7
			c0-0.42,0.02-0.84,0.06-1.25c0.63-6.16,5.8-10.96,12.11-11c0.3,0,0.6,0.01,0.9,0.03c13.25,0.68,20.39,16.19,12.88,27.28
			L19.73,59.54c-1.1,1.9-1.73,4.12-1.73,6.48c0,4.48,2.27,8.43,5.72,10.77l2.25-0.14C29.98,62.41,42.81,52,58.02,52
			c14.55,0,27.54,9.5,32.17,22.79l-0.69,0.13C85.25,84.39,75.67,91,64.54,91H45h-6h-8.43C17.55,91,7,80.41,7,67.35
			c0-5.62,1.95-10.78,5.21-14.83l20.25-28.89L32.36,23.52z"/>
	</g>
	<g>
		<path class="st14" d="M14,14.25c0,3.41,1.07,6.48,3,8.7c-2.87,0-4.94,2.47-5.93,5.71L3,24.96c0-3.63,1.5-6.92,3.91-9.28
			c1.79-1.75,4.24-2.66,6.75-2.66l0.4-0.02C14.02,13.41,14,13.83,14,14.25z"/>
	</g>
	<g>
		<path class="st80" d="M9.91,18.68c1.182-1.156,2.655-1.937,4.24-2.339C14.058,15.66,14,14.965,14,14.25
			c0-0.42,0.02-0.84,0.06-1.25l-0.4,0.02c-2.51,0-4.96,0.91-6.75,2.66C4.5,18.04,3,21.33,3,24.96l3.105,1.424
			C6.471,23.384,7.855,20.693,9.91,18.68z"/>
	</g>
	<g>
		<g>
			<path class="st81" d="M20.98,11c0.3,0,0.6,0.01,0.9,0.03c11.513,0.591,18.407,12.378,15.091,22.733l2.979-4.453
				c7.51-11.09,0.37-26.6-12.88-27.28C26.77,2.01,26.47,2,26.17,2c-6.31,0.04-11.48,4.84-12.11,11
				c-0.007,0.07-0.005,0.144-0.01,0.215C16.016,11.839,18.399,11.016,20.98,11z"/>
		</g>
		<g>
			<path class="st81" d="M58.02,52c-14.061,0-26.082,8.9-30.987,21.495C33.149,65.867,42.432,61,52.83,61
				c14.041,0,26.605,8.858,31.63,21.421c2.073-2.193,3.791-4.719,5.04-7.501l0.69-0.13C85.56,61.5,72.57,52,58.02,52z"/>
		</g>
	</g>
	<g>
		<path class="st82" d="M92.94,77.014c-0.242-0.964-0.531-1.933-0.861-2.882C87.128,59.923,73.122,50,58.02,50
			c-15.233,0-28.855,10.141-33.583,24.822C21.658,72.743,20,69.499,20,66.02c0-1.923,0.501-3.807,1.448-5.45l20.159-30.138
			c3.989-5.892,4.483-13.539,1.287-19.955c-3.085-6.193-8.962-10.098-15.69-10.443c-0.322-0.021-0.651-0.032-1.046-0.033V0
			c-0.005,0-0.011,0.001-0.016,0.001C26.119,0.001,26.102,0,26.08,0c-0.029,0-0.056,0.007-0.085,0.009
			c-6.63,0.117-12.199,4.745-13.633,11.084c-2.621,0.273-5.019,1.367-6.851,3.158c-2.886,2.826-4.481,6.592-4.506,10.614
			c-0.001,0.019-0.002,0.038-0.003,0.058C1.002,24.935,1,24.948,1,24.96c0,5.84,3.387,11.113,8.656,13.561
			c0.33,0.241,0.734,0.389,1.174,0.389c0.019,0,0.036-0.005,0.054-0.005c0.012,0,0.024,0.006,0.036,0.006
			c0.059,0,0.114-0.022,0.172-0.027c0.065-0.009,0.13-0.015,0.192-0.03c0.687-0.13,1.29-0.593,1.53-1.302
			c0.184-0.543,0.114-1.107-0.135-1.576c-0.449-2.176-0.347-4.602,0.304-6.731c0.275-0.902,1.267-3.622,3.272-4.185
			C18.549,27.281,21.609,28.5,25,28.5c0.579,0,1.137-0.047,1.685-0.116L10.609,51.319C6.992,55.838,5,61.529,5,67.35
			C5,81.493,16.471,93,30.57,93H37v17h-9c-1.104,0-2,0.896-2,2v9c0,1.104,0.896,2,2,2h1c3.309,0,6-2.691,6-6c0-1.104-0.896-2-2-2
			s-2,0.896-2,2c0,0.739-0.402,1.386-1,1.731V114h7v32h-4.731c0.346-0.598,0.992-1,1.731-1c1.104,0,2-0.896,2-2s-0.896-2-2-2
			c-3.309,0-6,2.691-6,6v1c0,1.104,0.896,2,2,2h9c1.104,0,2-0.896,2-2v-34h21c1.104,0,2-0.896,2-2c0-0.171-0.028-0.334-0.068-0.493
			c0.16-0.61,0.032-1.286-0.408-1.802L49.324,93H64.54c10.337,0,19.821-5.422,25.081-14.059c0.367,0.35,0.856,0.56,1.377,0.559
			c0.161,0,0.325-0.02,0.488-0.06C92.558,79.172,93.208,78.085,92.94,77.014z M8.309,17.11c0.992-0.97,2.301-1.633,3.729-1.923
			c0.126,2.389,0.729,4.63,1.756,6.568c-1.549,0.826-2.858,2.267-3.806,4.208l-4.911-2.252C5.358,21.213,6.478,18.903,8.309,17.11z
			 M58.526,110H41V93h3.076L58.526,110z M64.54,89H30.57C18.677,89,9,79.288,9,67.35c0-4.935,1.693-9.756,4.768-13.576
			c0.028-0.034,0.055-0.07,0.08-0.106l20.25-28.89c0.073-0.105,0.133-0.215,0.183-0.327c0.044-0.043,0.089-0.083,0.133-0.126
			c0.781-0.781,0.781-2.047,0-2.828c-0.781-0.781-2.047-0.781-2.828,0c-0.176,0.175-0.35,0.352-0.569,0.542
			C29.114,23.764,27.314,24.5,25,24.5c-2.638,0-4.88-0.986-6.49-2.862C16.892,19.776,16,17.152,16,14.25
			c0-0.354,0.017-0.709,0.049-1.046C16.583,7.99,20.939,4.033,26.17,4c0.256,0,0.511,0.008,0.798,0.027
			c5.298,0.272,9.913,3.35,12.345,8.233c2.554,5.126,2.163,11.229-1.024,15.938l-20.22,30.23c-0.012,0.018-0.018,0.038-0.03,0.056
			c-0.012,0.019-0.027,0.034-0.039,0.053c-1.309,2.258-2,4.846-2,7.482c0,4.979,2.466,9.624,6.602,12.428
			C25.077,80.117,27.971,81,30.97,81c1.104,0,2-0.896,2-2s-0.896-2-2-2c-0.985,0-1.953-0.137-2.885-0.389
			C32.118,63.272,44.33,54,58.02,54c12.908,0,24.891,8.159,29.712,20.004c-0.017,0.033-0.04,0.062-0.056,0.097
			C83.613,83.151,74.532,89,64.54,89z"/>
		<path class="st82" d="M78.497,68.716l-7.92-6.32c-0.861-0.688-2.12-0.546-2.811,0.316c-0.688,0.863-0.547,2.122,0.316,2.811
			L76,71.841c0.585,0.468,0.92,1.167,0.92,1.919c0,0.396-0.094,0.983-0.543,1.543c-0.413,0.518-1.003,0.844-1.66,0.917
			c-0.644,0.068-1.287-0.112-1.8-0.523l-3.684-2.94c-0.023-0.021-0.045-0.042-0.069-0.061c-0.016-0.013-0.03-0.026-0.047-0.038
			l-7.908-6.319c-0.86-0.69-2.121-0.551-2.811,0.312c-0.69,0.863-0.551,2.121,0.312,2.811l7.835,6.261
			c0.033,0.031,0.067,0.061,0.103,0.089c0.564,0.459,0.901,1.169,0.901,1.898c0,0.562-0.188,1.097-0.54,1.539
			c-0.851,1.061-2.401,1.238-3.463,0.388l-6.273-5.005c-0.022-0.019-0.044-0.038-0.067-0.057l-7.908-6.318
			c-0.864-0.69-2.121-0.55-2.812,0.313c-0.689,0.863-0.549,2.122,0.313,2.811l7.849,6.271c0.021,0.019,0.042,0.036,0.063,0.054
			c0.589,0.476,0.927,1.177,0.927,1.924c0,0.562-0.188,1.097-0.54,1.539c-0.852,1.061-2.402,1.237-3.463,0.388l-7.92-6.32
			c-0.861-0.688-2.12-0.547-2.811,0.316c-0.688,0.864-0.548,2.122,0.316,2.811l7.916,6.317c1.186,0.951,2.607,1.413,4.023,1.413
			c1.897,0,3.782-0.831,5.063-2.429c0.539-0.677,0.91-1.44,1.143-2.245l1.681,1.341c1.186,0.951,2.607,1.413,4.023,1.413
			c1.897,0,3.782-0.831,5.063-2.429c0.558-0.702,0.936-1.494,1.165-2.331c0.956,0.538,2.028,0.822,3.133,0.822
			c0.24,0,0.482-0.014,0.726-0.04c1.721-0.191,3.264-1.043,4.34-2.393c0.916-1.14,1.421-2.575,1.421-4.043
			C80.92,71.787,80.038,69.95,78.497,68.716z"/>
		<path class="st82" d="M26.683,10.766c-0.219,0.189-0.582,0.406-1.092,0.395c-0.43-0.013-0.826-0.194-1.114-0.51
			c-0.744-0.814-2.009-0.873-2.825-0.128c-0.815,0.745-0.873,2.01-0.128,2.826c1.009,1.105,2.447,1.765,3.943,1.811
			c0.059,0.002,0.118,0.003,0.177,0.003c1.337,0,2.628-0.482,3.654-1.369c0.836-0.722,0.928-1.985,0.206-2.821
			S27.519,10.043,26.683,10.766z"/>
	</g>
</g>
</svg>
