<?xml version="1.0" encoding="utf-8"?>
<!-- Generator: Adobe Illustrator 21.0.0, SVG Export Plug-In . SVG Version: 6.00 Build 0)  -->
<svg version="1.1" id="Layer_1" xmlns="http://www.w3.org/2000/svg" xmlns:xlink="http://www.w3.org/1999/xlink" x="0px" y="0px"
	 viewBox="0 0 108 150" style="enable-background:new 0 0 108 150;" xml:space="preserve">
<style type="text/css">
	.st0{fill:#FFFFFF;}
	.st1{fill:#6D6E71;}
	.st2{fill:#5A5B5E;}
	.st3{fill:#AEB0B1;}
	.st4{fill:#FFFFFF;stroke:#58595B;stroke-width:4;stroke-linecap:round;stroke-linejoin:round;stroke-miterlimit:10;}
	.st5{fill:#58595B;}
	.st6{fill:#A8724B;}
	.st7{fill:#916341;}
	.st8{fill:#754921;}
	.st9{fill:#FF6B6B;}
	.st10{fill:#FFD57E;}
	.st11{fill:#D9FF93;}
	.st12{fill:#E8E8E8;}
	.st13{fill:#85808A;}
	.st14{fill:#1787FF;}
	.st15{fill:#4DE69F;}
	.st16{fill:#C92A2A;}
	.st17{fill:#00386E;}
	.st18{fill:#231F20;}
	.st19{fill:#CCCCCC;}
	.st20{fill:#A12222;}
	.st21{fill:#002D58;}
	.st22{fill:#1C191A;}
	.st23{fill:#851616;}
	.st24{fill:#B01E1E;}
	.st25{fill:#E32626;}
	.st26{fill:#991919;}
	.st27{fill:#591300;}
	.st28{fill:#FF880F;}
	.st29{fill:#D16F0C;}
	.st30{fill:#F3D9D9;}
	.st31{fill:#ECC6C6;}
	.st32{fill:#E6B6B6;}
	.st33{fill:#F1D2D2;}
	.st34{fill:#E5B0B0;}
	.st35{fill:#D3AEAA;}
	.st36{fill:#F0CFCF;}
	.st37{fill:#F2D4D4;}
	.st38{fill:#B3F294;}
	.st39{fill:#99C4FF;}
	.st40{fill:#D2FFBA;}
	.st41{fill:#BDD9FF;}
	.st42{fill:#7C7E82;}
	.st43{fill:#E06AC6;}
	.st44{fill:#D9B580;}
	.st45{fill:#B556A0;}
	.st46{fill:#AD9166;}
	.st47{fill:#805075;}
	.st48{fill:#7E40B8;}
	.st49{fill:#A9FF8A;}
	.st50{fill:#FFFEA2;}
	.st51{fill:#5CFFEC;}
	.st52{fill:#6B92ED;}
	.st53{fill:#A398E7;}
	.st54{fill:#7F75BD;}
	.st55{fill:#FF564C;}
	.st56{fill:#8A81C4;}
	.st57{fill:#585082;}
	.st58{fill:#339CEE;}
	.st59{fill:#CFCFCF;}
	.st60{fill:#3E314D;}
	.st61{fill:#CF170E;}
	.st62{fill:#FFD49B;}
	.st63{fill:#E0D2C4;}
	.st64{fill:#E3BD8A;}
	.st65{fill:#A39287;}
	.st66{fill:#3F3E40;}
	.st67{fill:#64C2E3;}
	.st68{fill:#16C4C1;}
	.st69{fill:#48484A;}
	.st70{fill:#6BE0EB;}
	.st71{fill:#686A6B;}
	.st72{fill:#34A3C9;}
	.st73{fill:#7A7C7D;}
	.st74{fill:#ED3F45;}
	.st75{fill:#242424;}
	.st76{fill:#D9F1F4;}
	.st77{fill:#6B5C4E;}
	.st78{fill:#EBFFFF;}
	.st79{fill:#9BBECA;}
	.st80{fill:#564A3E;}
	.st81{fill:#B8D9E2;}
	.st82{fill:#645649;}
	.st83{fill:#424244;}
	.st84{fill:#766556;}
	.st85{fill:#353738;}
	.st86{fill:#2EADFF;}
	.st87{fill:#259CE8;}
	.st88{fill:#B9FEFF;}
	.st89{fill:#7EE6E8;}
	.st90{fill:#1485CC;}
	.st91{fill:#97F5F7;}
	.st92{fill:#333333;}
	.st93{fill:#E8DEC5;}
	.st94{fill:#1DA87B;}
	.st95{fill:#F0ECE2;}
	.st96{fill:#34D09C;}
	.st97{fill:#53F5D1;}
	.st98{fill:#B5DB76;}
	.st99{fill:#8BB548;}
	.st100{fill:#D2FF89;}
	.st101{fill:#B9EB67;}
	.st102{fill:#699124;}
	.st103{fill:#7FBD6E;}
	.st104{fill:#22A0C9;}
	.st105{fill:#51C2E8;}
	.st106{fill:#E3E691;}
	.st107{fill:#036E91;}
	.st108{fill:#B08851;}
	.st109{fill:#BDAD64;}
	.st110{fill:#70CCA6;}
	.st111{fill:#A68DC7;}
	.st112{fill:#9E763F;}
	.st113{fill:#9275BA;}
	.st114{fill:#4AA882;}
	.st115{fill:#D9CE96;}
	.st116{fill:#6E5638;}
	.st117{fill:#846491;}
	.st118{fill:#F5AA40;}
	.st119{fill:#775882;}
	.st120{fill:#9A7AA6;}
	.st121{fill:#F58840;}
	.st122{fill:#4A4052;}
	.st123{fill:#A3B06D;}
	.st124{fill:#D1A976;}
	.st125{fill:#A68051;}
	.st126{fill:#E8DBCA;}
	.st127{fill:#838F4E;}
	.st128{fill:#634A2C;}
	.st129{fill:#EDDB91;}
	.st130{fill:#8A5AAD;}
	.st131{fill:#33ABCC;}
	.st132{fill:#E69035;}
	.st133{fill:#ED68CA;}
	.st134{fill:#A18545;}
	.st135{fill:#5CB05D;}
	.st136{fill:#75D3E3;}
	.st137{fill:#B84D4D;}
	.st138{fill:#FFBD56;}
	.st139{fill:#CF5656;}
	.st140{fill:#FFD556;}
	.st141{fill:#ED7E7E;}
	.st142{fill:#506A78;}
	.st143{fill:#BA6262;}
	.st144{fill:#555157;}
	.st145{fill:#BA4921;}
	.st146{fill:#BA5221;}
	.st147{fill:#861E1E;}
	.st148{fill:#972121;}
	.st149{fill:#AD3030;}
	.st150{fill:#3A292E;}
	.st151{fill:#ACE5EE;}
	.st152{fill:#99979A;}
	.st153{fill:#C17A7A;}
	.st154{fill:#897F82;}
	.st155{fill:#CE8383;}
	.st156{fill:#D6927A;}
	.st157{fill:#D6977A;}
	.st158{fill:#A8792D;}
	.st159{fill:#A87F3C;}
	.st160{fill:#91631B;}
	.st161{fill:#6B5D4C;}
	.st162{fill:#615445;}
	.st163{fill:#A37C50;}
	.st164{fill:#DB9D3D;}
	.st165{fill:#7A6956;}
	.st166{fill:#FFCA76;}
	.st167{fill:#825D34;}
	.st168{fill:#453933;}
	.st169{fill:#CC3540;}
	.st170{fill:#9E3941;}
	.st171{fill:#B3212C;}
	.st172{fill:#8A242C;}
	.st173{fill:#EBC8C9;}
	.st174{fill:#751F25;}
	.st175{fill:#D6963B;}
	.st176{fill:#CF1B35;}
	.st177{fill:#CF3E53;}
	.st178{fill:#BA0B25;}
	.st179{fill:#A1081F;}
	.st180{fill:#FA8A99;}
</style>
<g>
	<g>
		<circle class="st175" cx="30" cy="71" r="22"/>
	</g>
	<g>
		<circle class="st175" cx="86" cy="98" r="22"/>
	</g>
	<g>
		<circle class="st175" cx="39" cy="127" r="22"/>
	</g>
	<g>
		<path class="st176" d="M79,76c12.15,0,22,9.85,22,22s-9.85,22-22,22s-22-9.85-22-22S66.85,76,79,76z M83.67,98L86,94h-4.67L79,90
			l-2.33,4H72l2.33,4L72,102h4.67l2.33,4l2.33-4H86L83.67,98z"/>
	</g>
	<g>
		<polygon class="st177" points="86,94 83.67,98 86,102 81.33,102 79,106 76.67,102 72,102 74.33,98 72,94 76.67,94 79,90 81.33,94 
					"/>
	</g>
	<g>
		<path class="st176" d="M32,105c12.15,0,22,9.85,22,22s-9.85,22-22,22s-22-9.85-22-22S19.85,105,32,105z M36.67,127l2.33-4h-4.67
			L32,119l-2.33,4H25l2.33,4L25,131h4.67l2.33,4l2.33-4H39L36.67,127z"/>
	</g>
	<g>
		<path class="st176" d="M23,49c12.15,0,22,9.85,22,22s-9.85,22-22,22S1,83.15,1,71S10.85,49,23,49z M27.67,71L30,67h-4.67L23,63
			l-2.33,4H16l2.33,4L16,75h4.67L23,79l2.33-4H30L27.67,71z"/>
	</g>
	<g>
		<g>
			<path class="st178" d="M68,98c0-10.251,7.011-18.865,16.5-21.307C82.742,76.241,80.899,76,79,76c-12.15,0-22,9.85-22,22
				c0,12.15,9.85,22,22,22c1.899,0,3.742-0.241,5.5-0.693C75.011,116.865,68,108.251,68,98z"/>
		</g>
	</g>
	<g>
		<g>
			<path class="st178" d="M21,127c0-10.251,7.011-18.865,16.5-21.307C35.742,105.241,33.899,105,32,105c-12.15,0-22,9.85-22,22
				c0,12.15,9.85,22,22,22c1.899,0,3.742-0.241,5.5-0.693C28.011,145.865,21,137.251,21,127z"/>
		</g>
	</g>
	<g>
		<g>
			<path class="st178" d="M12,71c0-10.251,7.011-18.865,16.5-21.307C26.742,49.241,24.899,49,23,49C10.85,49,1,58.85,1,71
				c0,12.15,9.85,22,22,22c1.899,0,3.742-0.241,5.5-0.693C19.011,89.865,12,81.251,12,71z"/>
		</g>
	</g>
	<g>
		<polygon class="st177" points="39,123 36.67,127 39,131 34.33,131 32,135 29.67,131 25,131 27.33,127 25,123 29.67,123 32,119 
			34.33,123 		"/>
	</g>
	<g>
		<polygon class="st177" points="30,67 27.67,71 30,75 25.33,75 23,79 20.67,75 16,75 18.33,71 16,67 20.67,67 23,63 25.33,67 		"/>
	</g>
	<g>
		<path class="st179" d="M23,94C10.317,94,0,83.683,0,71c0-12.682,10.317-23,23-23s23,10.318,23,23C46,83.683,35.682,94,23,94z
			 M23,50C11.421,50,2,59.42,2,71c0,11.579,9.421,21,21,21s21-9.421,21-21C44,59.42,34.579,50,23,50z"/>
	</g>
	<g>
		<path class="st179" d="M79,121c-12.683,0-23-10.317-23-23s10.317-23,23-23s23,10.317,23,23S91.682,121,79,121z M79,77
			c-11.579,0-21,9.421-21,21s9.421,21,21,21s21-9.421,21-21S90.579,77,79,77z"/>
	</g>
	<g>
		<path class="st179" d="M23,80c-0.355,0-0.685-0.189-0.864-0.497L20.094,76H16c-0.358,0-0.688-0.191-0.867-0.501
			c-0.178-0.311-0.177-0.692,0.003-1.002L17.172,71l-2.037-3.497c-0.18-0.31-0.181-0.691-0.003-1.002C15.311,66.191,15.641,66,16,66
			h4.095l2.041-3.503c0.359-0.615,1.369-0.615,1.729,0L25.905,66H30c0.358,0,0.688,0.191,0.867,0.501
			c0.178,0.311,0.177,0.692-0.003,1.002L28.827,71l2.037,3.497c0.18,0.31,0.181,0.691,0.003,1.002C30.688,75.809,30.358,76,30,76
			h-4.095l-2.041,3.503C23.684,79.811,23.355,80,23,80z M17.74,74h2.93c0.355,0,0.685,0.189,0.864,0.497L23,77.014l1.466-2.517
			C24.645,74.189,24.974,74,25.33,74h2.93l-1.454-2.497c-0.181-0.311-0.181-0.696,0-1.007L28.259,68h-2.93
			c-0.355,0-0.685-0.189-0.864-0.497L23,64.987l-1.466,2.517C21.354,67.811,21.025,68,20.67,68h-2.93l1.454,2.497
			c0.181,0.311,0.181,0.696,0,1.007L17.74,74z"/>
	</g>
	<g>
		<path class="st180" d="M39,72c-0.553,0-1-0.448-1-1c0-8.271-6.729-15-15-15c-0.553,0-1-0.448-1-1s0.447-1,1-1
			c9.374,0,17,7.626,17,17C40,71.552,39.552,72,39,72z"/>
	</g>
	<g>
		<path class="st179" d="M32,150c-12.683,0-23-10.317-23-23s10.317-23,23-23s23,10.317,23,23S44.682,150,32,150z M32,106
			c-11.579,0-21,9.421-21,21s9.421,21,21,21s21-9.421,21-21S43.579,106,32,106z"/>
	</g>
	<g>
		<path class="st179" d="M32,136c-0.355,0-0.685-0.189-0.864-0.497L29.094,132H25c-0.358,0-0.688-0.191-0.867-0.502
			c-0.178-0.311-0.177-0.692,0.003-1.001L26.172,127l-2.037-3.497c-0.18-0.309-0.181-0.69-0.003-1.001
			C24.311,122.191,24.641,122,25,122h4.095l2.041-3.503c0.359-0.615,1.369-0.615,1.729,0L34.905,122H39
			c0.358,0,0.688,0.191,0.867,0.502c0.178,0.311,0.177,0.692-0.003,1.001L37.827,127l2.037,3.497c0.18,0.309,0.181,0.69,0.003,1.001
			C39.688,131.809,39.358,132,39,132h-4.095l-2.041,3.503C32.684,135.811,32.355,136,32,136z M26.74,130h2.93
			c0.355,0,0.685,0.189,0.864,0.497L32,133.014l1.466-2.517c0.18-0.308,0.509-0.497,0.864-0.497h2.93l-1.454-2.497
			c-0.181-0.311-0.181-0.695,0-1.006L37.259,124h-2.93c-0.355,0-0.685-0.189-0.864-0.497L32,120.986l-1.466,2.517
			c-0.18,0.308-0.509,0.497-0.864,0.497h-2.93l1.454,2.497c0.181,0.311,0.181,0.695,0,1.006L26.74,130z"/>
	</g>
	<g>
		<path class="st180" d="M48,128c-0.553,0-1-0.447-1-1c0-8.271-6.729-15-15-15c-0.553,0-1-0.447-1-1s0.447-1,1-1
			c9.374,0,17,7.626,17,17C49,127.553,48.552,128,48,128z"/>
	</g>
	<g>
		<path class="st179" d="M79,107c-0.355,0-0.685-0.189-0.864-0.497L76.094,103H72c-0.358,0-0.688-0.191-0.867-0.502
			c-0.178-0.311-0.177-0.692,0.003-1.001L73.172,98l-2.037-3.497c-0.18-0.309-0.181-0.69-0.003-1.001C71.311,93.191,71.641,93,72,93
			h4.095l2.041-3.503c0.359-0.615,1.369-0.615,1.729,0L81.905,93H86c0.358,0,0.688,0.191,0.867,0.502
			c0.178,0.311,0.177,0.692-0.003,1.001L84.827,98l2.037,3.497c0.18,0.309,0.181,0.69,0.003,1.001C86.688,102.809,86.358,103,86,103
			h-4.095l-2.041,3.503C79.684,106.811,79.355,107,79,107z M73.74,101h2.93c0.355,0,0.685,0.189,0.864,0.497L79,104.014l1.466-2.517
			c0.18-0.308,0.509-0.497,0.864-0.497h2.93l-1.454-2.497c-0.181-0.311-0.181-0.695,0-1.006L84.259,95h-2.93
			c-0.355,0-0.685-0.189-0.864-0.497L79,91.986l-1.466,2.517C77.354,94.811,77.025,95,76.67,95h-2.93l1.454,2.497
			c0.181,0.311,0.181,0.695,0,1.006L73.74,101z"/>
	</g>
	<g>
		<path class="st180" d="M95,99c-0.553,0-1-0.447-1-1c0-8.271-6.729-15-15-15c-0.553,0-1-0.447-1-1s0.447-1,1-1
			c9.374,0,17,7.626,17,17C96,98.553,95.552,99,95,99z"/>
	</g>
</g>
</svg>
